HIERARCHY
ROOT RootJoint
{
    OFFSET   0.000000   0.000000   0.000000
    CHANNELS 6 Xposition Yposition Zposition Xrotation Yrotation Zrotation
    JOINT pelvis_lowerback
    {
        OFFSET   0.000000   0.093605   0.000000
        CHANNELS 3 Xrotation Yrotation Zrotation
        JOINT lowerback_torso
        {
            OFFSET   0.000000   0.100000   0.000000
            CHANNELS 3 Xrotation Yrotation Zrotation
            JOINT torso_head
            {
                OFFSET   0.000000   0.282350   0.000000
                CHANNELS 3 Xrotation Yrotation Zrotation
                End Site
                {
                    OFFSET   0.000000   0.192650   0.000000
                }
            }
            JOINT rTorso_Clavicle
            {
                OFFSET  -0.001000   0.157500   0.000000
                CHANNELS 3 Xrotation Yrotation Zrotation
                JOINT rShoulder
                {
                    OFFSET  -0.117647   0.000000   0.000000
                    CHANNELS 3 Xrotation Yrotation Zrotation
                    JOINT rElbow
                    {
                        OFFSET  -0.245000   0.000000   0.000000
                        CHANNELS 3 Xrotation Yrotation Zrotation
                        JOINT rWrist
                        {
                            OFFSET  -0.240000   0.000000   0.000000
                            CHANNELS 3 Xrotation Yrotation Zrotation
                            End Site
                            {
                                OFFSET  -0.116353  -0.002500   0.000000
                            }
                        }
                    }
                }
            }
            JOINT lTorso_Clavicle
            {
                OFFSET   0.001000   0.157500   0.000000
                CHANNELS 3 Xrotation Yrotation Zrotation
                JOINT lShoulder
                {
                    OFFSET   0.117647   0.000000   0.000000
                    CHANNELS 3 Xrotation Yrotation Zrotation
                    JOINT lElbow
                    {
                        OFFSET   0.245000   0.000000   0.000000
                        CHANNELS 3 Xrotation Yrotation Zrotation
                        JOINT lWrist
                        {
                            OFFSET   0.240000   0.000000   0.000000
                            CHANNELS 3 Xrotation Yrotation Zrotation
                            End Site
                            {
                                OFFSET   0.116353  -0.002500   0.000000
                            }
                        }
                    }
                }
            }
        }
    }
    JOINT rHip
    {
        OFFSET  -0.100000  -0.051395   0.000000
        CHANNELS 3 Xrotation Yrotation Zrotation
        JOINT rKnee
        {
            OFFSET   0.000000  -0.410000   0.000000
            CHANNELS 3 Xrotation Yrotation Zrotation
            JOINT rAnkle
            {
                OFFSET   0.000000  -0.390000   0.000000
                CHANNELS 3 Xrotation Yrotation Zrotation
                JOINT rToeJoint
                {
                    OFFSET   0.000000  -0.050000   0.130000
                    CHANNELS 3 Xrotation Yrotation Zrotation
                    End Site
                    {
                        OFFSET  -0.010000   0.002000   0.060000
                    }
                }
            }
        }
    }
    JOINT lHip
    {
        OFFSET   0.100000  -0.051395   0.000000
        CHANNELS 3 Xrotation Yrotation Zrotation
        JOINT lKnee
        {
            OFFSET   0.000000  -0.410000   0.000000
            CHANNELS 3 Xrotation Yrotation Zrotation
            JOINT lAnkle
            {
                OFFSET   0.000000  -0.390000   0.000000
                CHANNELS 3 Xrotation Yrotation Zrotation
                JOINT lToeJoint
                {
                    OFFSET   0.000000  -0.050000   0.130000
                    CHANNELS 3 Xrotation Yrotation Zrotation
                    End Site
                    {
                        OFFSET   0.010000   0.002000   0.060000
                    }
                }
            }
        }
    }
}
MOTION
Frames: 15
Frame Time:   0.008333
 -2.376719   0.925631   3.975860   0.000000   0.000000   0.000000   0.000000   0.000000   0.000000   0.000000   0.000000   0.000000   0.000000   0.000000   0.000000   0.000000   0.000000   0.000000   0.000000   0.000000   0.000000   0.000000   0.000000   0.000000   0.000000   0.000000   0.000000   0.000000   0.000000   0.000000   0.000000   0.000000   0.000000   0.000000   0.000000   0.000000   0.000000   0.000000   0.000000   0.000000   0.000000   0.000000   0.000000   0.000000   0.000000   0.000000   0.000000   0.000000   0.000000   0.000000   0.000000   0.000000   0.000000   0.000000   0.000000   0.000000   0.000000   0.000000   0.000000   0.000000   0.000000   0.000000   0.000000
 -2.376849   0.925814   3.975899  -0.340349   0.158107   0.018699   0.247053   0.038131  -0.140489   0.122855  -0.153937   0.083267  -0.014901   0.159093  -0.052872   0.257920  -0.506963  -0.147653   0.670907   0.062617   2.353991   0.068087   3.544728  -0.031511   0.191982  -1.643109  -2.633300  -0.025474   0.346635   0.172100   0.909351  -0.104594  -2.089883   0.061020  -3.510535   0.029717   0.235400   1.650486   2.340960   0.216045  -0.125934  -0.161245   0.456671   0.000571   0.000126  -0.470699  -0.255173  -0.016108   0.131889   0.000183  -0.000256   0.067920  -0.146526   0.150898   1.098365  -0.001622   0.000131  -1.096192   0.289626   0.164878  -0.030425   0.000089  -0.000080
 -2.377059   0.926177   3.975870  -0.757647   0.329173   0.031112   0.452534   0.071132  -0.295074   0.268825  -0.322155   0.160501  -0.006727   0.315669  -0.111596   0.508746  -0.824691   0.310741   1.306414   0.345798   5.186194   0.162997   7.232162  -0.054746   0.413694  -2.270187  -4.656523  -0.041599   0.475743  -0.222403   1.740727  -0.438425  -4.488275   0.144807  -7.173943   0.050845   0.499794   2.257812   4.083145   0.451746  -0.250256  -0.442263   0.962646   0.001656   0.000284  -0.909201  -0.497392  -0.034704   0.235354   0.000405  -0.000383   0.234599  -0.275685   0.447388   2.287178  -0.004472   0.000680  -2.119258   0.563402   0.325977  -0.100986   0.000360  -0.000257
 -2.377285   0.926380   3.975764  -1.180955   0.505770   0.036776   0.617631   0.088981  -0.444310   0.386977  -0.494187   0.237263  -0.012431   0.462413  -0.173891   0.746030  -0.978933   1.185848   1.880163   0.757222   8.217916   0.263008  10.964825  -0.070288   0.635170  -2.475126  -5.919457  -0.055578   0.441297  -0.997683   2.489540  -0.905608  -7.026222   0.232528 -10.888181   0.064783   0.761452   2.418084   5.140898   0.654457  -0.370980  -0.825026   1.443622   0.002929   0.000406  -1.318212  -0.724673  -0.054830   0.326362   0.000640  -0.000446   0.451895  -0.390270   0.857869   3.437428  -0.007674   0.001481  -3.072973   0.818467   0.481983  -0.165799   0.000610  -0.000385
 -2.377490   0.926169   3.975590  -1.592521   0.685495   0.037004   0.755525   0.092573  -0.579906   0.479594  -0.667757   0.319555  -0.033163   0.599397  -0.236985   0.972322  -1.025111   2.329824   2.388168   1.241849  11.286556   0.356411  14.722135  -0.080658   0.849760  -2.478350  -6.576948  -0.066473   0.305391  -2.014367   3.162338  -1.455434  -9.605984   0.314192 -14.631074   0.074354   1.014900   2.358685   5.665086   0.815278  -0.487506  -1.293156   1.885936   0.004176   0.000477  -1.700717  -0.937866  -0.076118   0.404332   0.000845  -0.000465   0.699353  -0.492345   1.355114   4.528285  -0.010737   0.002414  -3.963644   1.055656   0.632517  -0.228953   0.000844  -0.000482
 -2.377661   0.925353   3.975357  -1.987167   0.865241   0.033599   0.877369   0.083787  -0.699023   0.557530  -0.841721   0.407883  -0.064462   0.727285  -0.297853   1.189277  -1.003854   3.626135   2.837017   1.766587  14.314186   0.437649  18.492566  -0.087968   1.052988  -2.383572  -6.810316  -0.073601   0.110175  -3.170860   3.765979  -2.053251 -12.159994   0.384802 -18.390847   0.081634   1.256456   2.184079   5.810364   0.935002  -0.598892  -1.830691   2.289354   0.005275   0.000497  -2.058590  -1.137760  -0.098219   0.471108   0.001003  -0.000457   0.966173  -0.583303   1.916995   5.557964  -0.013414   0.003370  -4.795715   1.275980   0.777306  -0.290457   0.001051  -0.000552
 -2.377792   0.923794   3.975074  -2.362727   1.041580   0.027828   0.991357   0.064506  -0.801385   0.630130  -1.014946   0.501879  -0.102215   0.846698  -0.355194   1.398163  -0.940665   4.995073   3.233145   2.309799  17.252249   0.504667  22.269839  -0.093615   1.242568  -2.244764  -6.757797  -0.076952  -0.118290  -4.394352   4.306829  -2.675825 -14.643043   0.442537 -22.160927   0.088009   1.484255   1.949358   5.700654   1.016454  -0.704255  -2.422330   2.656267   0.006161   0.000473  -2.393384  -1.325086  -0.120807   0.528815   0.001114  -0.000435   1.244959  -0.664276   2.525628   6.528242  -0.015593   0.004266  -5.573044   1.480481   0.916188  -0.349563   0.001221  -0.000598
 -2.377916   0.921042   3.974329  -2.501658   1.156052  -0.186045   1.011435   0.068170  -0.614722   0.634480  -1.110391   0.599308  -0.239623   0.934486  -0.361874   1.570976  -0.958252   5.838366   3.880255   2.970585  20.004926   0.545467  26.064314  -0.110168   1.408622  -2.013508  -6.042336   0.149980  -0.330789  -5.094468   4.821364  -3.461169 -17.314897   0.483322 -25.958055   0.106050   1.720367   1.584606   5.168421   0.542713  -1.021772  -2.707460   3.848507   0.009931  -0.002461  -2.926860  -1.600472   0.194472   0.554047   0.000930  -0.000461   1.466661  -0.519829   3.291346   6.496301  -0.012334   0.003316  -5.696535   1.762625   1.102568  -0.193698  -0.000015   0.000254
 -2.378180   0.919592   3.973507  -2.684528   1.297510  -0.708718   1.115300   0.056127  -0.184054   0.685988  -1.206701   0.819704  -0.373697   1.016773  -0.341882   1.729249  -0.953608   6.604130   4.455191   3.621880  22.511682   0.572989  29.851869  -0.125618   1.577453  -1.797622  -5.411447   0.365779  -0.565092  -5.817581   5.272048  -4.243626 -19.825723   0.514577 -29.761524   0.124016   1.958484   1.184585   4.625159  -0.026501  -1.468310  -2.229047   5.234464   0.007949  -0.006346  -3.036959  -1.962866   0.700224   0.630715   0.000429  -0.000841   1.693383  -0.376566   4.275528   6.312691  -0.009202   0.002112  -5.809629   2.029898   1.279808   0.023959  -0.001188   0.001240
 -2.377903   0.919646   3.972905  -2.889056   1.243143  -0.596463   1.227777   0.114272  -0.263135   0.766176  -1.245248   0.829095  -0.491114   1.095556  -0.327066   1.883333  -0.921370   7.372509   4.971029   4.279108  24.882595   0.591514  33.650163  -0.138530   1.743726  -1.556493  -4.795146   0.578597  -0.770689  -6.470370   5.673974  -4.976788 -22.140922   0.536993 -33.550131   0.140055   2.182509   0.835412   4.105756  -0.450349  -1.743133  -2.438724   6.400189   0.006724  -0.008932  -3.497254  -2.195017   0.953669   0.732829   0.000176  -0.001202   1.823125  -0.376609   4.143309   6.410371  -0.007344   0.001662  -5.762901   2.072805   1.216155   0.055761  -0.000927   0.000991
 -2.377870   0.919808   3.972429  -3.051532   1.208286  -0.574221   1.323119   0.144842  -0.228920   0.840047  -1.291284   0.839206  -0.599916   1.167710  -0.321979   2.029828  -0.890734   7.981619   5.433784   4.912518  27.041904   0.597925  37.453484  -0.149285   1.902100  -1.298559  -4.201471   0.782211  -0.969371  -7.016318   6.029314  -5.682126 -24.281246   0.549163 -37.346588   0.155047   2.393295   0.485761   3.583575  -0.819046  -2.008900  -2.475848   7.441943   0.004881  -0.010195  -3.942236  -2.418932   1.193280   0.789304   0.000013  -0.001232   1.926580  -0.277716   4.123618   6.474691  -0.005870   0.001375  -5.736464   2.254841   1.324640   0.122134  -0.000804   0.000938
 -2.378019   0.919963   3.972048  -3.175380   1.212333  -0.570443   1.410723   0.154524  -0.176326   0.904085  -1.349609   0.857155  -0.700899   1.234122  -0.313200   2.161487  -0.861837   8.477432   5.842779   5.519043  29.006395   0.593234  41.173998  -0.157760   2.058640  -1.009939  -3.706730   0.965430  -1.168482  -7.471503   6.335802  -6.358893 -26.241661   0.553642 -41.147113   0.168769   2.596702   0.133257   3.128634  -1.147947  -2.260943  -2.440184   8.411545   0.002978  -0.010420  -4.358680  -2.628732   1.415779   0.830710  -0.000097  -0.001157   2.001982  -0.156459   4.141347   6.509922  -0.004696   0.001143  -5.702955   2.454994   1.440959   0.186049  -0.000717   0.000935
 -2.378310   0.920079   3.971775  -3.264404   1.246955  -0.562960   1.488855   0.151025  -0.122742   0.953669  -1.416816   0.873688  -0.791952   1.295885  -0.303319   2.271678  -0.824224   8.883815   6.197743   6.106977  30.800288   0.576493  44.659753  -0.162784   2.216970  -0.648737  -3.310812   1.119316  -1.378683  -7.851538   6.590595  -7.019604 -28.040316   0.547004 -44.754844   0.178815   2.800144  -0.311068   2.753046  -1.439888  -2.497935  -2.368010   9.319277   0.001221  -0.009980  -4.747143  -2.825305   1.622272   0.866339  -0.000176  -0.001053   2.053207  -0.029661   4.168361   6.522631  -0.003758   0.000934  -5.665455   2.655890   1.555252   0.245566  -0.000647   0.000938
 -2.378665   0.920135   3.971502  -3.269167   1.359456  -0.526006   1.499715   0.089859  -0.091021   1.029889  -1.419480   0.893587  -0.862744   1.330294  -0.238522   2.388020  -0.806808   8.988801   6.698169   6.743347  32.209430   0.551488  48.040768  -0.178724   2.327303  -0.254313  -2.638447   1.328985  -1.642162  -7.909914   6.845350  -7.808580 -29.666948   0.532496 -48.215646   0.195269   2.952126  -0.749425   2.226219  -1.684716  -2.747533  -2.322071  10.038605   0.000101  -0.008812  -5.140391  -2.985402   1.751748   0.973695  -0.000368  -0.001123   2.003821   0.079947   4.170854   6.530340  -0.003007   0.000764  -5.619285   2.777805   1.682713   0.303486  -0.000597   0.000928
 -2.379144   0.920173   3.971271  -3.226882   1.515655  -0.485142   1.506526   0.023303  -0.052204   1.082609  -1.429357   0.904819  -0.921045   1.363397  -0.170036   2.465449  -0.791569   8.904822   7.133238   7.337666  33.396271   0.517254  51.207448  -0.189777   2.447224   0.187509  -2.118877   1.492434  -1.908504  -7.831383   7.043415  -8.561503 -31.097555   0.508262 -51.462632   0.205946   3.108100  -1.252684   1.801697  -1.888667  -2.981312  -2.269748  10.695377  -0.000704  -0.007419  -5.508759  -3.135451   1.871228   1.068346  -0.000487  -0.001084   1.911727   0.202121   4.183013   6.510215  -0.002403   0.000560  -5.554553   2.914407   1.810365   0.359872  -0.000560   0.000950
